<mxfile host="app.diagrams.net" agent="Mozilla/5.0 (Windows NT 10.0; Win64; x64) AppleWebKit/537.36 (KHTML, like Gecko) Chrome/134.0.0.0 Safari/537.36 Edg/134.0.0.0" version="26.1.0">
  <diagram name="第 1 页" id="GKVlA3Yf4YcbFKZeoxxk">
    <mxGraphModel dx="620" dy="898" grid="1" gridSize="10" guides="1" tooltips="1" connect="1" arrows="1" fold="1" page="1" pageScale="1" pageWidth="827" pageHeight="1169" math="0" shadow="0">
      <root>
        <mxCell id="0" />
        <mxCell id="1" parent="0" />
        <mxCell id="lhvnYu_v4vNuFo9bR72b-1" value="Activity launched" style="ellipse;whiteSpace=wrap;html=1;" vertex="1" parent="1">
          <mxGeometry x="240" y="170" width="140" height="60" as="geometry" />
        </mxCell>
        <mxCell id="lhvnYu_v4vNuFo9bR72b-3" value="Activity running" style="ellipse;whiteSpace=wrap;html=1;" vertex="1" parent="1">
          <mxGeometry x="240" y="430" width="140" height="60" as="geometry" />
        </mxCell>
        <mxCell id="lhvnYu_v4vNuFo9bR72b-5" value="Activity destroyed" style="ellipse;whiteSpace=wrap;html=1;" vertex="1" parent="1">
          <mxGeometry x="240" y="680" width="140" height="60" as="geometry" />
        </mxCell>
        <mxCell id="lhvnYu_v4vNuFo9bR72b-6" value="onCreate()" style="text;html=1;align=center;verticalAlign=middle;whiteSpace=wrap;rounded=0;" vertex="1" parent="1">
          <mxGeometry x="280" y="270" width="60" height="30" as="geometry" />
        </mxCell>
        <mxCell id="lhvnYu_v4vNuFo9bR72b-7" value="onStart()" style="text;html=1;align=center;verticalAlign=middle;whiteSpace=wrap;rounded=0;" vertex="1" parent="1">
          <mxGeometry x="280" y="350" width="60" height="30" as="geometry" />
        </mxCell>
        <mxCell id="lhvnYu_v4vNuFo9bR72b-8" value="onStop()" style="text;html=1;align=center;verticalAlign=middle;whiteSpace=wrap;rounded=0;" vertex="1" parent="1">
          <mxGeometry x="280" y="530" width="60" height="30" as="geometry" />
        </mxCell>
        <mxCell id="lhvnYu_v4vNuFo9bR72b-9" value="onDestroy()" style="text;html=1;align=center;verticalAlign=middle;whiteSpace=wrap;rounded=0;" vertex="1" parent="1">
          <mxGeometry x="280" y="600" width="60" height="30" as="geometry" />
        </mxCell>
        <mxCell id="lhvnYu_v4vNuFo9bR72b-10" value="onRestart()" style="text;html=1;align=center;verticalAlign=middle;whiteSpace=wrap;rounded=0;" vertex="1" parent="1">
          <mxGeometry x="450" y="445" width="60" height="30" as="geometry" />
        </mxCell>
        <mxCell id="lhvnYu_v4vNuFo9bR72b-11" value="" style="endArrow=classic;html=1;rounded=0;exitX=0.5;exitY=1;exitDx=0;exitDy=0;entryX=0.5;entryY=0;entryDx=0;entryDy=0;" edge="1" parent="1" source="lhvnYu_v4vNuFo9bR72b-1" target="lhvnYu_v4vNuFo9bR72b-6">
          <mxGeometry width="50" height="50" relative="1" as="geometry">
            <mxPoint x="300" y="480" as="sourcePoint" />
            <mxPoint x="350" y="430" as="targetPoint" />
          </mxGeometry>
        </mxCell>
        <mxCell id="lhvnYu_v4vNuFo9bR72b-12" value="" style="endArrow=classic;html=1;rounded=0;entryX=1.133;entryY=0.527;entryDx=0;entryDy=0;entryPerimeter=0;" edge="1" parent="1" target="lhvnYu_v4vNuFo9bR72b-7">
          <mxGeometry width="50" height="50" relative="1" as="geometry">
            <mxPoint x="480" y="366" as="sourcePoint" />
            <mxPoint x="540" y="425" as="targetPoint" />
          </mxGeometry>
        </mxCell>
        <mxCell id="lhvnYu_v4vNuFo9bR72b-13" value="" style="endArrow=classic;html=1;rounded=0;exitX=0.5;exitY=1;exitDx=0;exitDy=0;entryX=0.5;entryY=0;entryDx=0;entryDy=0;" edge="1" parent="1" source="lhvnYu_v4vNuFo9bR72b-9">
          <mxGeometry width="50" height="50" relative="1" as="geometry">
            <mxPoint x="309.5" y="640" as="sourcePoint" />
            <mxPoint x="309.5" y="680" as="targetPoint" />
          </mxGeometry>
        </mxCell>
        <mxCell id="lhvnYu_v4vNuFo9bR72b-14" value="" style="endArrow=classic;html=1;rounded=0;exitX=0.5;exitY=1;exitDx=0;exitDy=0;entryX=0.5;entryY=0;entryDx=0;entryDy=0;" edge="1" parent="1">
          <mxGeometry width="50" height="50" relative="1" as="geometry">
            <mxPoint x="309.5" y="565" as="sourcePoint" />
            <mxPoint x="309.5" y="605" as="targetPoint" />
          </mxGeometry>
        </mxCell>
        <mxCell id="lhvnYu_v4vNuFo9bR72b-15" value="" style="endArrow=classic;html=1;rounded=0;exitX=0.5;exitY=1;exitDx=0;exitDy=0;entryX=0.5;entryY=0;entryDx=0;entryDy=0;" edge="1" parent="1">
          <mxGeometry width="50" height="50" relative="1" as="geometry">
            <mxPoint x="309.5" y="490" as="sourcePoint" />
            <mxPoint x="309.5" y="530" as="targetPoint" />
          </mxGeometry>
        </mxCell>
        <mxCell id="lhvnYu_v4vNuFo9bR72b-16" value="" style="endArrow=classic;html=1;rounded=0;exitX=0.5;exitY=1;exitDx=0;exitDy=0;entryX=0.5;entryY=0;entryDx=0;entryDy=0;" edge="1" parent="1" source="lhvnYu_v4vNuFo9bR72b-7">
          <mxGeometry width="50" height="50" relative="1" as="geometry">
            <mxPoint x="309.5" y="390" as="sourcePoint" />
            <mxPoint x="309.5" y="430" as="targetPoint" />
          </mxGeometry>
        </mxCell>
        <mxCell id="lhvnYu_v4vNuFo9bR72b-17" value="" style="endArrow=classic;html=1;rounded=0;exitX=0.5;exitY=1;exitDx=0;exitDy=0;entryX=0.5;entryY=0;entryDx=0;entryDy=0;" edge="1" parent="1" source="lhvnYu_v4vNuFo9bR72b-6">
          <mxGeometry width="50" height="50" relative="1" as="geometry">
            <mxPoint x="309.5" y="310" as="sourcePoint" />
            <mxPoint x="309.5" y="350" as="targetPoint" />
          </mxGeometry>
        </mxCell>
        <mxCell id="lhvnYu_v4vNuFo9bR72b-18" value="" style="endArrow=classic;html=1;rounded=0;entryX=0.5;entryY=1;entryDx=0;entryDy=0;" edge="1" parent="1" target="lhvnYu_v4vNuFo9bR72b-10">
          <mxGeometry width="50" height="50" relative="1" as="geometry">
            <mxPoint x="480" y="550" as="sourcePoint" />
            <mxPoint x="520" y="480" as="targetPoint" />
          </mxGeometry>
        </mxCell>
        <mxCell id="lhvnYu_v4vNuFo9bR72b-19" value="" style="endArrow=none;html=1;rounded=0;exitX=0.5;exitY=0;exitDx=0;exitDy=0;" edge="1" parent="1" source="lhvnYu_v4vNuFo9bR72b-10">
          <mxGeometry width="50" height="50" relative="1" as="geometry">
            <mxPoint x="380" y="300" as="sourcePoint" />
            <mxPoint x="480" y="370" as="targetPoint" />
          </mxGeometry>
        </mxCell>
        <mxCell id="lhvnYu_v4vNuFo9bR72b-20" value="" style="endArrow=none;html=1;rounded=0;" edge="1" parent="1">
          <mxGeometry width="50" height="50" relative="1" as="geometry">
            <mxPoint x="340" y="550" as="sourcePoint" />
            <mxPoint x="480" y="550" as="targetPoint" />
          </mxGeometry>
        </mxCell>
      </root>
    </mxGraphModel>
  </diagram>
</mxfile>
